# Blender v2.78 (sub 0) OBJ File: ''
# www.blender.org
mtllib sphere1.mtl
o Icosphere.001_Icosphere.002
v 0.110290 -0.460267 0.184019
v 0.833890 0.092518 0.709739
v -0.166095 0.092518 1.034659
v -0.784135 0.092518 0.184019
v -0.166095 0.092518 -0.666621
v 0.833890 0.092518 -0.341701
v 0.386675 0.986948 1.034659
v -0.613310 0.986948 0.709739
v -0.613310 0.986948 -0.341701
v 0.386675 0.986948 -0.666621
v 1.004715 0.986948 0.184019
v 0.110290 1.539733 0.184019
vn 0.1876 -0.7947 0.5774
vn 0.6071 -0.7947 0.0000
vn -0.4911 -0.7947 0.3568
vn -0.4911 -0.7947 -0.3568
vn 0.1876 -0.7947 -0.5774
vn 0.9822 -0.1876 0.0000
vn 0.3035 -0.1876 0.9342
vn -0.7946 -0.1876 0.5774
vn -0.7946 -0.1876 -0.5774
vn 0.3035 -0.1876 -0.9342
vn 0.7946 0.1876 0.5774
vn -0.3035 0.1876 0.9342
vn -0.9822 0.1876 0.0000
vn -0.3035 0.1876 -0.9342
vn 0.7946 0.1876 -0.5774
vn 0.4911 0.7947 0.3568
vn -0.1876 0.7947 0.5774
vn -0.6071 0.7947 0.0000
vn -0.1876 0.7947 -0.5774
vn 0.4911 0.7947 -0.3568
usemtl None
s off
f 1//1 2//1 3//1
f 2//2 1//2 6//2
f 1//3 3//3 4//3
f 1//4 4//4 5//4
f 1//5 5//5 6//5
f 2//6 6//6 11//6
f 3//7 2//7 7//7
f 4//8 3//8 8//8
f 5//9 4//9 9//9
f 6//10 5//10 10//10
f 2//11 11//11 7//11
f 3//12 7//12 8//12
f 4//13 8//13 9//13
f 5//14 9//14 10//14
f 6//15 10//15 11//15
f 7//16 11//16 12//16
f 8//17 7//17 12//17
f 9//18 8//18 12//18
f 10//19 9//19 12//19
f 11//20 10//20 12//20
o Icosphere_Icosphere.001
v 0.110290 -0.460267 0.184019
v 0.833897 0.092514 0.709744
v -0.166098 0.092513 1.034668
v -0.784136 0.092518 0.184019
v -0.166098 0.092513 -0.666631
v 0.833897 0.092514 -0.341707
v 0.386678 0.986953 1.034668
v -0.613317 0.986953 0.709744
v -0.613317 0.986953 -0.341707
v 0.386678 0.986953 -0.666631
v 1.004716 0.986949 0.184019
v 0.110290 1.539733 0.184019
v -0.052166 -0.310921 0.684014
v 0.535613 -0.310921 0.493030
v 0.373159 0.013996 0.993030
v 0.960938 0.013997 0.184019
v 0.535613 -0.310921 -0.124993
v -0.415440 -0.310919 0.184019
v -0.577899 0.013997 0.684016
v -0.052166 -0.310921 -0.315977
v -0.577899 0.013997 -0.315978
v 0.373159 0.013996 -0.624993
v 1.061348 0.539733 0.493031
v 1.061348 0.539733 -0.124994
v 0.110290 0.539733 1.184018
v 0.698076 0.539733 0.993035
v -0.840768 0.539733 0.493031
v -0.477496 0.539733 0.993035
v -0.477496 0.539733 -0.624998
v -0.840768 0.539733 -0.124994
v 0.698076 0.539733 -0.624998
v 0.110290 0.539733 -0.815981
v 0.798479 1.065469 0.684016
v -0.152579 1.065471 0.993030
v -0.740358 1.065469 0.184019
v -0.152579 1.065471 -0.624993
v 0.798479 1.065469 -0.315978
v 0.272745 1.390388 0.684014
v 0.636020 1.390385 0.184019
v -0.315033 1.390387 0.493030
v -0.315033 1.390387 -0.124993
v 0.272745 1.390388 -0.315977
vn 0.1024 -0.9435 0.3151
vn 0.7002 -0.6617 0.2680
vn -0.2680 -0.9435 0.1947
vn -0.2680 -0.9435 -0.1947
vn 0.1024 -0.9435 -0.3151
vn 0.9050 -0.3304 0.2680
vn 0.0247 -0.3304 0.9435
vn -0.8897 -0.3304 0.3151
vn -0.5746 -0.3304 -0.7488
vn 0.5346 -0.3304 -0.7779
vn 0.8026 -0.1256 0.5831
vn -0.3066 -0.1256 0.9435
vn -0.9921 -0.1256 0.0000
vn -0.3066 -0.1256 -0.9435
vn 0.8026 -0.1256 -0.5831
vn 0.4089 0.6617 0.6284
vn -0.4713 0.6617 0.5831
vn -0.7002 0.6617 -0.2680
vn 0.0385 0.6617 -0.7488
vn 0.7240 0.6617 -0.1947
vn 0.2680 0.9435 -0.1947
vn 0.4911 0.7947 -0.3568
vn 0.4089 0.6617 -0.6284
vn -0.1024 0.9435 -0.3151
vn -0.1876 0.7947 -0.5773
vn -0.4713 0.6617 -0.5831
vn -0.3313 0.9435 0.0000
vn -0.6071 0.7947 0.0000
vn -0.7002 0.6617 0.2680
vn -0.1024 0.9435 0.3151
vn -0.1876 0.7947 0.5773
vn 0.0385 0.6617 0.7488
vn 0.2680 0.9435 0.1947
vn 0.4911 0.7947 0.3568
vn 0.7240 0.6617 0.1947
vn 0.8897 0.3304 -0.3151
vn 0.7947 0.1876 -0.5773
vn 0.5746 0.3304 -0.7488
vn -0.0247 0.3304 -0.9435
vn -0.3035 0.1876 -0.9342
vn -0.5346 0.3304 -0.7779
vn -0.9050 0.3304 -0.2680
vn -0.9822 0.1876 0.0000
vn -0.9050 0.3304 0.2680
vn -0.5346 0.3304 0.7779
vn -0.3035 0.1876 0.9342
vn -0.0247 0.3304 0.9435
vn 0.5746 0.3304 0.7488
vn 0.7947 0.1876 0.5773
vn 0.8897 0.3304 0.3151
vn 0.3066 0.1256 -0.9435
vn 0.3035 -0.1876 -0.9342
vn 0.0247 -0.3304 -0.9435
vn -0.8026 0.1256 -0.5831
vn -0.7947 -0.1876 -0.5773
vn -0.8897 -0.3304 -0.3151
vn -0.8026 0.1256 0.5831
vn -0.7947 -0.1876 0.5773
vn -0.5746 -0.3304 0.7488
vn 0.3066 0.1256 0.9435
vn 0.3035 -0.1876 0.9342
vn 0.5346 -0.3304 0.7779
vn 0.9921 0.1256 0.0000
vn 0.9822 -0.1876 0.0000
vn 0.9050 -0.3304 -0.2680
vn 0.4713 -0.6617 -0.5831
vn 0.1876 -0.7947 -0.5773
vn -0.0385 -0.6617 -0.7488
vn -0.4089 -0.6617 -0.6284
vn -0.4911 -0.7947 -0.3568
vn -0.7240 -0.6617 -0.1947
vn -0.7240 -0.6617 0.1947
vn -0.4911 -0.7947 0.3568
vn -0.4089 -0.6617 0.6284
vn 0.7002 -0.6617 -0.2680
vn 0.6071 -0.7947 0.0000
vn 0.3313 -0.9435 0.0000
vn -0.0385 -0.6617 0.7488
vn 0.1876 -0.7947 0.5773
vn 0.4713 -0.6617 0.5831
usemtl None
s off
f 13//21 26//21 25//21
f 14//22 26//22 28//22
f 13//23 25//23 30//23
f 13//24 30//24 32//24
f 13//25 32//25 29//25
f 14//26 28//26 35//26
f 15//27 27//27 37//27
f 16//28 31//28 39//28
f 17//29 33//29 41//29
f 18//30 34//30 43//30
f 14//31 35//31 38//31
f 15//32 37//32 40//32
f 16//33 39//33 42//33
f 17//34 41//34 44//34
f 18//35 43//35 36//35
f 19//36 45//36 50//36
f 20//37 46//37 52//37
f 21//38 47//38 53//38
f 22//39 48//39 54//39
f 23//40 49//40 51//40
f 51//41 54//41 24//41
f 51//42 49//42 54//42
f 49//43 22//43 54//43
f 54//44 53//44 24//44
f 54//45 48//45 53//45
f 48//46 21//46 53//46
f 53//47 52//47 24//47
f 53//48 47//48 52//48
f 47//49 20//49 52//49
f 52//50 50//50 24//50
f 52//51 46//51 50//51
f 46//52 19//52 50//52
f 50//53 51//53 24//53
f 50//54 45//54 51//54
f 45//55 23//55 51//55
f 36//56 49//56 23//56
f 36//57 43//57 49//57
f 43//58 22//58 49//58
f 44//59 48//59 22//59
f 44//60 41//60 48//60
f 41//61 21//61 48//61
f 42//62 47//62 21//62
f 42//63 39//63 47//63
f 39//64 20//64 47//64
f 40//65 46//65 20//65
f 40//66 37//66 46//66
f 37//67 19//67 46//67
f 38//68 45//68 19//68
f 38//69 35//69 45//69
f 35//70 23//70 45//70
f 43//71 44//71 22//71
f 43//72 34//72 44//72
f 34//73 17//73 44//73
f 41//74 42//74 21//74
f 41//75 33//75 42//75
f 33//76 16//76 42//76
f 39//77 40//77 20//77
f 39//78 31//78 40//78
f 31//79 15//79 40//79
f 37//80 38//80 19//80
f 37//81 27//81 38//81
f 27//82 14//82 38//82
f 35//83 36//83 23//83
f 35//84 28//84 36//84
f 28//85 18//85 36//85
f 29//86 34//86 18//86
f 29//87 32//87 34//87
f 32//88 17//88 34//88
f 32//89 33//89 17//89
f 32//90 30//90 33//90
f 30//91 16//91 33//91
f 30//92 31//92 16//92
f 30//93 25//93 31//93
f 25//94 15//94 31//94
f 28//95 29//95 18//95
f 28//96 26//96 29//96
f 26//97 13//97 29//97
f 25//98 27//98 15//98
f 25//99 26//99 27//99
f 26//100 14//100 27//100
